<?xml version="1.0" encoding="UTF-8" standalone="no"?>
<!-- Created with Inkscape (http://www.inkscape.org/) -->
<svg
   xmlns:svg="http://www.w3.org/2000/svg"
   xmlns="http://www.w3.org/2000/svg"
   version="1.0"
   width="744.09448"
   height="829.13385"
   id="svg2367">
  <defs
     id="defs2369" />
  <g
     transform="translate(-640.9854,-15.917286)"
     id="layer1">
    <g
       transform="translate(17.716541,17.650688)"
       id="g2522">
      <path
         d="M 772.80704,286.14158 L 772.80704,539.71885 L 995.60654,668.24977 L 1217.8254,539.52546 L 1218.019,286.14158 L 995.60654,157.61089 L 772.80704,286.14158"
         style="fill:#ffca04;fill-rule:nonzero;stroke:none"
         id="path66" />
      <path
         d="M 935.21264,485.51919 L 935.21264,337.63135 L 1009.9306,337.63135 C 1061.614,337.63135 1070.1311,399.96114 1022.8999,413.89806 C 1064.5175,420.67312 1041.4826,469.45277 1054.4519,485.7128 L 1019.6092,485.7128 C 1012.6407,482.61569 1013.8022,468.09794 1012.6407,452.99935 C 1012.4471,448.74079 1011.8665,427.83519 995.02594,427.83519 L 970.24874,427.83519 L 970.24874,485.51919 L 935.21264,485.51919 z M 970.44234,399.18669 L 996.76794,399.18669 C 1020.19,400.54175 1022.1257,366.47346 1000.2523,366.47346 L 970.24874,366.47346 L 970.44234,399.18669 z M 1074.3897,485.51919 L 1074.3897,337.63135 L 1149.1079,337.63135 C 1200.9847,337.63135 1209.3082,399.96114 1162.2706,413.89806 C 1203.6948,420.67312 1180.66,469.45277 1193.629,485.7128 L 1158.9799,485.7128 C 1152.0115,482.61569 1152.9793,468.09794 1152.0115,452.99935 C 1151.6242,448.74079 1151.2372,427.83519 1134.3966,427.83519 L 1109.426,427.83519 L 1109.426,485.51919 L 1074.3897,485.51919 z M 1109.813,399.18669 L 1136.1386,399.18669 C 1159.3671,400.54175 1161.4964,366.47346 1139.4294,366.47346 L 1109.426,366.47346 L 1109.813,399.18669 z M 829.91024,484.93858 L 784.80824,337.63135 L 824.87744,337.63135 L 853.13874,440.99788 L 855.07434,451.64429 L 856.62304,451.64429 L 858.36514,440.99788 L 888.36844,337.63135 L 926.88914,337.63135 L 881.59354,484.93858 L 829.91024,484.93858"
         style="fill:#4fb847;fill-rule:evenodd;stroke:none"
         id="path68" />
      <path
         d="M 1240.086,398.79969 L 1240.086,287.30303 L 1349.2598,232.13553 L 1349.2598,391.83101 L 1240.086,398.79969"
         style="fill:#4fb847;fill-rule:nonzero;stroke:none"
         id="path70" />
      <path
         d="M 1240.086,535.6539 L 1240.086,425.1253 L 1349.6468,431.51314 L 1349.6468,594.30573 L 1240.086,535.6539"
         style="fill:#4fb847;fill-rule:nonzero;stroke:none"
         id="path72" />
      <path
         d="M 1190.7255,707.93168 L 1129.7508,616.37278 L 1226.9233,560.81806 L 1330.4835,627.01919 L 1190.7255,707.93168"
         style="fill:#4fb847;fill-rule:nonzero;stroke:none"
         id="path74" />
      <path
         d="M 1007.8013,686.63886 L 1105.5545,630.1163 L 1156.0764,727.67582 L 1013.8022,809.74976 L 1007.8013,686.63886"
         style="fill:#4fb847;fill-rule:nonzero;stroke:none"
         id="path76" />
      <path
         d="M 885.65854,631.08414 L 981.28234,685.86463 L 974.89454,808.78192 L 835.33024,728.45005 L 885.65854,631.08414"
         style="fill:#4fb847;fill-rule:nonzero;stroke:none"
         id="path78" />
      <path
         d="M 860.88164,616.76 L 802.03614,709.28673 L 661.69761,628.37424 L 764.0963,560.81806 L 860.88164,616.76"
         style="fill:#4fb847;fill-rule:nonzero;stroke:none"
         id="path80" />
      <path
         d="M 750.15917,535.6539 L 640.9854,595.27357 L 640.9854,434.61026 L 750.15917,427.06097 L 750.15917,535.6539"
         style="fill:#4fb847;fill-rule:nonzero;stroke:none"
         id="path82" />
      <path
         d="M 750.15917,401.12236 L 640.9854,394.15391 L 640.9854,229.81264 L 750.15917,284.98014 L 750.15917,401.12236"
         style="fill:#4fb847;fill-rule:nonzero;stroke:none"
         id="path84" />
      <path
         d="M 1330.4835,198.26064 L 1226.1489,265.04238 L 1128.9766,208.51982 L 1189.5641,117.54176 L 1330.4835,198.26064"
         style="fill:#4fb847;fill-rule:nonzero;stroke:none"
         id="path86" />
      <path
         d="M 1155.8828,98.184616 L 1105.5545,195.55074 L 1008.3822,139.22158 L 1013.9958,15.917286 L 1155.8828,98.184616"
         style="fill:#4fb847;fill-rule:nonzero;stroke:none"
         id="path88" />
      <path
         d="M 982.05664,139.99602 L 886.23914,194.3893 L 835.52384,97.410386 L 976.63664,16.304286 L 982.05664,139.99602"
         style="fill:#4fb847;fill-rule:nonzero;stroke:none"
         id="path90" />
      <path
         d="M 801.45534,116.96092 L 862.23644,208.51982 L 766.03197,264.07454 L 660.92316,198.26064 L 801.45534,116.96092"
         style="fill:#4fb847;fill-rule:nonzero;stroke:none"
         id="path92" />
    </g>
  </g>
</svg>
